<svg xmlns="http://www.w3.org/2000/svg" xmlns:xlink="http://www.w3.org/1999/xlink" width="500" zoomAndPan="magnify" viewBox="0 0 375 374.999991" height="500" preserveAspectRatio="xMidYMid meet" version="1.0"><defs><g/><clipPath id="14fdee94b6"><path d="M 185.636719 120.371094 L 291.386719 120.371094 L 291.386719 233.621094 L 185.636719 233.621094 Z M 185.636719 120.371094 " clip-rule="nonzero"/></clipPath><clipPath id="a9c6510221"><path d="M 49.523438 48.15625 L 238.523438 48.15625 L 238.523438 304.65625 L 49.523438 304.65625 Z M 49.523438 48.15625 " clip-rule="nonzero"/></clipPath></defs><g clip-path="url(#14fdee94b6)"><path fill="#ffffff" d="M 284.003906 179.417969 C 282.3125 177.367188 280.390625 175.558594 278.242188 173.992188 C 276.09375 172.425781 273.785156 171.152344 271.3125 170.167969 C 280.5625 164.789062 285.1875 157.371094 285.1875 148.121094 C 285.179688 145.703125 284.835938 143.332031 284.160156 141.011719 C 283.484375 138.6875 282.5 136.503906 281.207031 134.460938 C 279.820312 132.269531 278.167969 130.296875 276.25 128.546875 C 274.335938 126.792969 272.222656 125.324219 269.914062 124.136719 C 264.988281 121.609375 259.753906 120.351562 254.214844 120.371094 C 246.46875 120.371094 238.296875 122.738281 232.597656 127.578125 C 229.660156 129.976562 226.9375 132.59375 224.421875 135.429688 L 224.636719 135.644531 L 233.347656 140.804688 C 235.128906 138.84375 237.0625 137.050781 239.15625 135.429688 C 242.492188 132.847656 249.589844 131.019531 254.214844 131.019531 C 256.824219 130.929688 259.355469 131.332031 261.8125 132.226562 C 264.265625 133.117188 266.464844 134.4375 268.410156 136.183594 C 269.292969 136.929688 270.082031 137.761719 270.78125 138.683594 C 271.480469 139.601562 272.074219 140.585938 272.554688 141.636719 C 273.039062 142.6875 273.402344 143.777344 273.644531 144.90625 C 273.890625 146.035156 274.007812 147.179688 274.003906 148.335938 C 274 149.914062 273.761719 151.457031 273.285156 152.960938 C 272.808594 154.464844 272.113281 155.863281 271.207031 157.152344 C 269.378906 159.84375 266.472656 161.992188 262.386719 163.820312 C 258.082031 165.601562 253.601562 166.460938 248.945312 166.402344 L 248.945312 176.296875 C 257.332031 176.726562 263.460938 177.910156 267.441406 179.738281 C 269.386719 180.632812 271.164062 181.78125 272.777344 183.191406 C 274.386719 184.601562 275.761719 186.210938 276.90625 188.019531 C 278.066406 189.777344 278.945312 191.660156 279.550781 193.675781 C 280.15625 195.691406 280.457031 197.75 280.457031 199.851562 C 280.464844 201.394531 280.320312 202.921875 280.011719 204.433594 C 279.707031 205.945312 279.25 207.410156 278.636719 208.824219 C 278.027344 210.242188 277.277344 211.582031 276.386719 212.839844 C 275.496094 214.101562 274.488281 215.257812 273.355469 216.304688 C 268.625 221.039062 262.386719 223.296875 254.535156 223.296875 C 249.660156 223.152344 244.929688 222.257812 240.339844 220.609375 C 234.855469 219.101562 227.972656 213.296875 227.972656 213.296875 L 199.363281 188.773438 L 211.949219 169.953125 L 202.914062 164.574219 L 185.921875 190.496094 C 185.921875 190.496094 215.925781 216.953125 228.402344 225.984375 C 233.347656 229.535156 239.480469 231.257812 245.503906 232.546875 C 248.4375 233.25 251.410156 233.570312 254.429688 233.515625 C 261.3125 233.300781 267.550781 232.007812 273.140625 228.996094 C 275.910156 227.527344 278.410156 225.695312 280.640625 223.5 C 282.875 221.304688 284.75 218.832031 286.261719 216.089844 C 287.832031 213.457031 289.027344 210.660156 289.847656 207.703125 C 290.667969 204.746094 291.085938 201.734375 291.101562 198.667969 C 291.109375 196.917969 290.957031 195.179688 290.652344 193.453125 C 290.347656 191.730469 289.890625 190.046875 289.285156 188.402344 C 288.679688 186.761719 287.933594 185.183594 287.046875 183.675781 C 286.160156 182.164062 285.144531 180.746094 284.003906 179.417969 Z M 284.003906 179.417969 " fill-opacity="1" fill-rule="nonzero"/></g><g clip-path="url(#a9c6510221)"><path fill="#ffffff" d="M 49.523438 176.40625 C 49.523438 174.308594 49.578125 172.214844 49.683594 170.121094 C 49.789062 168.027344 49.945312 165.9375 50.152344 163.851562 C 50.359375 161.765625 50.617188 159.683594 50.929688 157.609375 C 51.238281 155.539062 51.597656 153.472656 52.011719 151.417969 C 52.421875 149.359375 52.882812 147.316406 53.394531 145.28125 C 53.90625 143.25 54.464844 141.230469 55.078125 139.222656 C 55.6875 137.21875 56.347656 135.230469 57.054688 133.253906 C 57.761719 131.28125 58.519531 129.328125 59.324219 127.390625 C 60.128906 125.453125 60.976562 123.539062 61.875 121.644531 C 62.773438 119.75 63.71875 117.875 64.707031 116.027344 C 65.699219 114.179688 66.734375 112.355469 67.8125 110.558594 C 68.890625 108.761719 70.015625 106.992188 71.179688 105.246094 C 72.347656 103.503906 73.554688 101.792969 74.804688 100.109375 C 76.054688 98.425781 77.347656 96.773438 78.675781 95.152344 C 80.007812 93.53125 81.378906 91.945312 82.789062 90.390625 C 84.199219 88.835938 85.644531 87.320312 87.128906 85.835938 C 88.613281 84.355469 90.128906 82.910156 91.683594 81.5 C 93.238281 80.09375 94.828125 78.722656 96.449219 77.394531 C 98.070312 76.0625 99.726562 74.773438 101.410156 73.523438 C 103.09375 72.277344 104.808594 71.066406 106.554688 69.902344 C 108.296875 68.738281 110.070312 67.617188 111.871094 66.539062 C 113.667969 65.457031 115.492188 64.425781 117.34375 63.4375 C 119.195312 62.445312 121.066406 61.503906 122.964844 60.605469 C 124.859375 59.710938 126.777344 58.859375 128.714844 58.054688 C 130.652344 57.25 132.609375 56.496094 134.585938 55.789062 C 136.558594 55.082031 138.550781 54.421875 140.558594 53.8125 C 142.566406 53.203125 144.585938 52.640625 146.621094 52.132812 C 148.65625 51.621094 150.703125 51.160156 152.761719 50.75 C 154.820312 50.335938 156.886719 49.976562 158.960938 49.667969 C 161.035156 49.359375 163.117188 49.101562 165.207031 48.890625 C 167.292969 48.683594 169.386719 48.527344 171.480469 48.421875 C 173.578125 48.316406 175.671875 48.265625 177.773438 48.261719 L 231.773438 48.261719 C 232.214844 48.261719 232.652344 48.304688 233.089844 48.390625 C 233.523438 48.476562 233.945312 48.605469 234.355469 48.773438 C 234.765625 48.945312 235.152344 49.152344 235.523438 49.398438 C 235.890625 49.644531 236.230469 49.925781 236.542969 50.238281 C 236.859375 50.550781 237.136719 50.890625 237.382812 51.257812 C 237.628906 51.628906 237.839844 52.015625 238.007812 52.425781 C 238.175781 52.835938 238.304688 53.257812 238.390625 53.691406 C 238.476562 54.125 238.523438 54.5625 238.523438 55.007812 C 238.523438 55.449219 238.476562 55.886719 238.390625 56.320312 C 238.304688 56.757812 238.175781 57.179688 238.007812 57.585938 C 237.839844 57.996094 237.628906 58.386719 237.382812 58.753906 C 237.136719 59.121094 236.859375 59.460938 236.542969 59.777344 C 236.230469 60.089844 235.890625 60.367188 235.523438 60.613281 C 235.152344 60.859375 234.765625 61.066406 234.355469 61.238281 C 233.945312 61.40625 233.523438 61.535156 233.089844 61.621094 C 232.652344 61.707031 232.214844 61.75 231.773438 61.75 L 177.773438 61.75 C 175.894531 61.75 174.019531 61.796875 172.140625 61.890625 C 170.265625 61.984375 168.394531 62.121094 166.527344 62.304688 C 164.660156 62.492188 162.796875 62.722656 160.9375 62.996094 C 159.082031 63.273438 157.230469 63.59375 155.390625 63.960938 C 153.550781 64.328125 151.71875 64.738281 149.898438 65.195312 C 148.074219 65.652344 146.265625 66.152344 144.46875 66.695312 C 142.671875 67.242188 140.890625 67.832031 139.125 68.464844 C 137.355469 69.097656 135.605469 69.769531 133.871094 70.488281 C 132.136719 71.207031 130.421875 71.96875 128.722656 72.769531 C 127.027344 73.574219 125.351562 74.417969 123.695312 75.300781 C 122.039062 76.1875 120.40625 77.113281 118.796875 78.078125 C 117.183594 79.042969 115.601562 80.046875 114.039062 81.085938 C 112.476562 82.128906 110.945312 83.210938 109.4375 84.328125 C 107.929688 85.445312 106.449219 86.601562 104.996094 87.789062 C 103.546875 88.980469 102.125 90.207031 100.734375 91.464844 C 99.34375 92.726562 97.984375 94.019531 96.65625 95.347656 C 95.328125 96.671875 94.035156 98.03125 92.773438 99.421875 C 91.515625 100.8125 90.289062 102.234375 89.097656 103.683594 C 87.90625 105.132812 86.75 106.613281 85.632812 108.117188 C 84.515625 109.625 83.433594 111.160156 82.390625 112.71875 C 81.347656 114.28125 80.34375 115.863281 79.378906 117.472656 C 78.414062 119.082031 77.488281 120.714844 76.605469 122.367188 C 75.71875 124.023438 74.875 125.699219 74.074219 127.394531 C 73.269531 129.089844 72.511719 130.804688 71.792969 132.539062 C 71.074219 134.273438 70.398438 136.023438 69.765625 137.789062 C 69.132812 139.554688 68.546875 141.335938 68 143.128906 C 67.457031 144.925781 66.953125 146.734375 66.5 148.554688 C 66.042969 150.375 65.632812 152.203125 65.265625 154.042969 C 64.898438 155.882812 64.578125 157.730469 64.304688 159.585938 C 64.027344 161.441406 63.796875 163.304688 63.613281 165.171875 C 63.429688 167.039062 63.292969 168.90625 63.199219 170.78125 C 63.105469 172.65625 63.0625 174.53125 63.0625 176.40625 C 63.0625 178.28125 63.105469 180.15625 63.199219 182.03125 C 63.292969 183.90625 63.429688 185.773438 63.613281 187.640625 C 63.796875 189.507812 64.027344 191.371094 64.304688 193.226562 C 64.578125 195.082031 64.898438 196.929688 65.265625 198.769531 C 65.632812 200.609375 66.042969 202.441406 66.5 204.257812 C 66.953125 206.078125 67.457031 207.886719 68 209.683594 C 68.546875 211.476562 69.132812 213.257812 69.765625 215.023438 C 70.398438 216.789062 71.074219 218.539062 71.792969 220.273438 C 72.511719 222.007812 73.269531 223.722656 74.074219 225.417969 C 74.875 227.113281 75.71875 228.789062 76.605469 230.445312 C 77.488281 232.097656 78.414062 233.730469 79.378906 235.339844 C 80.34375 236.949219 81.347656 238.535156 82.390625 240.09375 C 83.433594 241.652344 84.515625 243.1875 85.632812 244.695312 C 86.75 246.199219 87.90625 247.679688 89.097656 249.128906 C 90.289062 250.582031 91.515625 252 92.773438 253.390625 C 94.035156 254.78125 95.328125 256.140625 96.65625 257.464844 C 97.984375 258.792969 99.34375 260.085938 100.734375 261.347656 C 102.125 262.605469 103.546875 263.832031 104.996094 265.023438 C 106.449219 266.210938 107.929688 267.367188 109.4375 268.484375 C 110.945312 269.601562 112.476562 270.683594 114.039062 271.726562 C 115.601562 272.769531 117.183594 273.773438 118.796875 274.738281 C 120.40625 275.703125 122.039062 276.625 123.695312 277.511719 C 125.351562 278.394531 127.027344 279.238281 128.722656 280.042969 C 130.421875 280.84375 132.136719 281.605469 133.871094 282.324219 C 135.605469 283.042969 137.355469 283.71875 139.125 284.347656 C 140.890625 284.980469 142.671875 285.570312 144.46875 286.117188 C 146.265625 286.660156 148.074219 287.160156 149.898438 287.617188 C 151.71875 288.074219 153.550781 288.484375 155.390625 288.851562 C 157.230469 289.21875 159.082031 289.539062 160.9375 289.816406 C 162.796875 290.089844 164.660156 290.320312 166.527344 290.507812 C 168.394531 290.691406 170.265625 290.828125 172.140625 290.921875 C 174.019531 291.015625 175.894531 291.0625 177.773438 291.0625 L 231.773438 291.0625 C 232.214844 291.0625 232.652344 291.105469 233.089844 291.191406 C 233.523438 291.277344 233.945312 291.40625 234.355469 291.574219 C 234.765625 291.746094 235.152344 291.953125 235.523438 292.199219 C 235.890625 292.445312 236.230469 292.722656 236.542969 293.039062 C 236.859375 293.351562 237.136719 293.691406 237.382812 294.058594 C 237.628906 294.425781 237.839844 294.816406 238.007812 295.226562 C 238.175781 295.632812 238.304688 296.054688 238.390625 296.492188 C 238.476562 296.925781 238.523438 297.363281 238.523438 297.804688 C 238.523438 298.25 238.476562 298.6875 238.390625 299.121094 C 238.304688 299.554688 238.175781 299.976562 238.007812 300.386719 C 237.839844 300.796875 237.628906 301.183594 237.382812 301.554688 C 237.136719 301.921875 236.859375 302.261719 236.542969 302.574219 C 236.230469 302.890625 235.890625 303.167969 235.523438 303.414062 C 235.152344 303.660156 234.765625 303.867188 234.355469 304.039062 C 233.945312 304.207031 233.523438 304.335938 233.089844 304.421875 C 232.652344 304.507812 232.214844 304.550781 231.773438 304.550781 L 177.773438 304.550781 C 175.671875 304.546875 173.578125 304.496094 171.480469 304.390625 C 169.386719 304.285156 167.292969 304.128906 165.207031 303.921875 C 163.117188 303.714844 161.035156 303.453125 158.960938 303.144531 C 156.886719 302.835938 154.820312 302.476562 152.761719 302.066406 C 150.703125 301.652344 148.65625 301.191406 146.621094 300.683594 C 144.585938 300.171875 142.566406 299.609375 140.558594 299 C 138.550781 298.390625 136.558594 297.730469 134.585938 297.023438 C 132.609375 296.316406 130.652344 295.5625 128.714844 294.757812 C 126.777344 293.953125 124.859375 293.105469 122.964844 292.207031 C 121.066406 291.308594 119.195312 290.367188 117.34375 289.375 C 115.492188 288.386719 113.667969 287.355469 111.871094 286.277344 C 110.070312 285.195312 108.296875 284.074219 106.554688 282.910156 C 104.808594 281.746094 103.09375 280.539062 101.410156 279.289062 C 99.726562 278.039062 98.070312 276.75 96.449219 275.417969 C 94.828125 274.089844 93.238281 272.71875 91.683594 271.3125 C 90.128906 269.902344 88.613281 268.457031 87.128906 266.976562 C 85.644531 265.492188 84.199219 263.976562 82.789062 262.421875 C 81.378906 260.867188 80.007812 259.28125 78.675781 257.660156 C 77.347656 256.039062 76.054688 254.390625 74.804688 252.707031 C 73.554688 251.019531 72.347656 249.308594 71.179688 247.566406 C 70.015625 245.824219 68.890625 244.050781 67.8125 242.253906 C 66.734375 240.457031 65.699219 238.632812 64.707031 236.785156 C 63.71875 234.9375 62.773438 233.0625 61.875 231.167969 C 60.976562 229.273438 60.128906 227.359375 59.324219 225.421875 C 58.519531 223.484375 57.761719 221.53125 57.054688 219.558594 C 56.347656 217.585938 55.6875 215.59375 55.078125 213.589844 C 54.464844 211.582031 53.90625 209.5625 53.394531 207.53125 C 52.882812 205.496094 52.421875 203.453125 52.011719 201.394531 C 51.597656 199.339844 51.238281 197.277344 50.929688 195.203125 C 50.617188 193.128906 50.359375 191.046875 50.152344 188.960938 C 49.945312 186.875 49.789062 184.785156 49.683594 182.691406 C 49.578125 180.597656 49.523438 178.503906 49.523438 176.40625 Z M 49.523438 176.40625 " fill-opacity="1" fill-rule="nonzero"/></g><g fill="#ffffff" fill-opacity="1"><g transform="translate(99.04891, 261.307369)"><g><path d="M 110.675781 -34.105469 C 108.960938 -34.105469 107.460938 -32.816406 107.460938 -31.316406 L 107.460938 -6.003906 L 57.269531 -6.003906 L 57.269531 -144.136719 L 67.992188 -144.136719 C 69.496094 -144.136719 70.996094 -145.425781 70.996094 -147.140625 C 70.996094 -148.855469 69.496094 -150.144531 67.992188 -150.144531 L 16.085938 -150.144531 C 14.585938 -150.144531 13.296875 -148.855469 13.296875 -147.140625 C 13.296875 -145.425781 14.585938 -144.136719 16.085938 -144.136719 L 23.808594 -144.136719 L 23.808594 -6.003906 L 14.800781 -6.003906 C 13.082031 -6.003906 11.796875 -4.503906 11.796875 -3.003906 C 11.796875 -1.074219 13.082031 0 14.800781 0 L 110.890625 0 C 112.609375 0 113.894531 -1.074219 113.894531 -3.003906 L 113.894531 -31.316406 C 113.894531 -32.816406 112.394531 -34.105469 110.675781 -34.105469 Z M 30.242188 -6.003906 L 30.242188 -144.136719 L 50.835938 -144.136719 L 50.835938 -6.003906 Z M 30.242188 -6.003906 "/></g></g></g><g fill="#ffffff" fill-opacity="1"><g transform="translate(167.06538, 323.770145)"><g><path d="M 4.234375 -8.515625 C 4.421875 -8.515625 4.617188 -8.5 4.828125 -8.46875 C 5.046875 -8.445312 5.269531 -8.390625 5.5 -8.296875 C 5.957031 -8.140625 6.300781 -7.96875 6.53125 -7.78125 C 6.769531 -7.59375 6.921875 -7.5 6.984375 -7.5 C 7.023438 -7.5 7.054688 -7.503906 7.078125 -7.515625 C 7.097656 -7.523438 7.125 -7.539062 7.15625 -7.5625 L 7.28125 -7.5 L 6.296875 -6.109375 L 6.140625 -6.1875 C 6.148438 -6.238281 6.15625 -6.28125 6.15625 -6.3125 C 6.164062 -6.351562 6.171875 -6.398438 6.171875 -6.453125 C 6.171875 -6.554688 6.117188 -6.664062 6.015625 -6.78125 C 5.921875 -6.90625 5.785156 -7.019531 5.609375 -7.125 C 5.441406 -7.238281 5.238281 -7.332031 5 -7.40625 C 4.769531 -7.476562 4.523438 -7.515625 4.265625 -7.515625 C 3.828125 -7.515625 3.453125 -7.421875 3.140625 -7.234375 C 2.828125 -7.046875 2.566406 -6.800781 2.359375 -6.5 C 2.160156 -6.195312 2.015625 -5.847656 1.921875 -5.453125 C 1.835938 -5.054688 1.796875 -4.644531 1.796875 -4.21875 C 1.796875 -3.113281 2.035156 -2.28125 2.515625 -1.71875 C 2.992188 -1.164062 3.601562 -0.890625 4.34375 -0.890625 C 4.59375 -0.890625 4.832031 -0.929688 5.0625 -1.015625 C 5.300781 -1.109375 5.515625 -1.210938 5.703125 -1.328125 C 5.890625 -1.453125 6.035156 -1.578125 6.140625 -1.703125 C 6.242188 -1.835938 6.296875 -1.953125 6.296875 -2.046875 C 6.296875 -2.097656 6.285156 -2.160156 6.265625 -2.234375 C 6.253906 -2.316406 6.226562 -2.390625 6.1875 -2.453125 L 6.4375 -2.546875 L 7.515625 -1.046875 L 7.34375 -0.921875 C 7.257812 -1.015625 7.175781 -1.0625 7.09375 -1.0625 C 7.039062 -1.0625 6.972656 -1.023438 6.890625 -0.953125 C 6.816406 -0.890625 6.742188 -0.832031 6.671875 -0.78125 C 6.421875 -0.59375 6.109375 -0.398438 5.734375 -0.203125 C 5.359375 -0.00390625 4.898438 0.09375 4.359375 0.09375 C 3.765625 0.09375 3.234375 -0.0078125 2.765625 -0.21875 C 2.304688 -0.4375 1.914062 -0.734375 1.59375 -1.109375 C 1.28125 -1.492188 1.035156 -1.945312 0.859375 -2.46875 C 0.691406 -3 0.609375 -3.578125 0.609375 -4.203125 C 0.609375 -4.828125 0.691406 -5.398438 0.859375 -5.921875 C 1.035156 -6.453125 1.28125 -6.910156 1.59375 -7.296875 C 1.90625 -7.679688 2.285156 -7.976562 2.734375 -8.1875 C 3.179688 -8.40625 3.679688 -8.515625 4.234375 -8.515625 Z M 4.234375 -8.515625 "/></g></g></g><g fill="#ffffff" fill-opacity="1"><g transform="translate(175.063461, 323.770145)"><g><path d="M 2.640625 -7.046875 L 2.640625 -6.84375 C 2.523438 -6.820312 2.445312 -6.769531 2.40625 -6.6875 C 2.375 -6.601562 2.359375 -6.46875 2.359375 -6.28125 L 2.359375 -3.96875 L 5.640625 -3.96875 L 5.640625 -6.28125 C 5.640625 -6.46875 5.617188 -6.601562 5.578125 -6.6875 C 5.546875 -6.769531 5.472656 -6.820312 5.359375 -6.84375 L 5.359375 -7.046875 L 6.921875 -7.046875 L 6.921875 -6.84375 C 6.804688 -6.820312 6.726562 -6.769531 6.6875 -6.6875 C 6.65625 -6.601562 6.640625 -6.46875 6.640625 -6.28125 L 6.640625 -0.75 C 6.640625 -0.570312 6.65625 -0.4375 6.6875 -0.34375 C 6.726562 -0.257812 6.804688 -0.207031 6.921875 -0.1875 L 6.921875 0 L 5.359375 0 L 5.359375 -0.1875 C 5.472656 -0.207031 5.546875 -0.257812 5.578125 -0.34375 C 5.617188 -0.4375 5.640625 -0.570312 5.640625 -0.75 L 5.640625 -3.203125 L 2.359375 -3.203125 L 2.359375 -0.75 C 2.359375 -0.570312 2.375 -0.4375 2.40625 -0.34375 C 2.445312 -0.257812 2.523438 -0.207031 2.640625 -0.1875 L 2.640625 0 L 1.078125 0 L 1.078125 -0.1875 C 1.191406 -0.207031 1.265625 -0.257812 1.296875 -0.34375 C 1.335938 -0.4375 1.359375 -0.570312 1.359375 -0.75 L 1.359375 -6.28125 C 1.359375 -6.46875 1.335938 -6.601562 1.296875 -6.6875 C 1.265625 -6.769531 1.191406 -6.820312 1.078125 -6.84375 L 1.078125 -7.046875 Z M 2.640625 -7.046875 "/></g></g></g><g fill="#ffffff" fill-opacity="1"><g transform="translate(183.061542, 323.770145)"><g><path d="M 1.828125 -3.515625 C 1.828125 -3.160156 1.863281 -2.8125 1.9375 -2.46875 C 2.019531 -2.132812 2.148438 -1.832031 2.328125 -1.5625 C 2.503906 -1.300781 2.726562 -1.085938 3 -0.921875 C 3.28125 -0.753906 3.613281 -0.671875 4 -0.671875 C 4.382812 -0.671875 4.710938 -0.75 4.984375 -0.90625 C 5.253906 -1.070312 5.476562 -1.285156 5.65625 -1.546875 C 5.832031 -1.816406 5.960938 -2.117188 6.046875 -2.453125 C 6.128906 -2.796875 6.171875 -3.148438 6.171875 -3.515625 C 6.171875 -3.835938 6.132812 -4.164062 6.0625 -4.5 C 5.988281 -4.84375 5.863281 -5.148438 5.6875 -5.421875 C 5.519531 -5.703125 5.296875 -5.929688 5.015625 -6.109375 C 4.742188 -6.285156 4.398438 -6.375 3.984375 -6.375 C 3.617188 -6.375 3.300781 -6.296875 3.03125 -6.140625 C 2.757812 -5.984375 2.535156 -5.773438 2.359375 -5.515625 C 2.179688 -5.253906 2.046875 -4.953125 1.953125 -4.609375 C 1.867188 -4.265625 1.828125 -3.898438 1.828125 -3.515625 Z M 4 -7.140625 C 4.5 -7.140625 4.941406 -7.039062 5.328125 -6.84375 C 5.710938 -6.644531 6.035156 -6.378906 6.296875 -6.046875 C 6.566406 -5.722656 6.769531 -5.34375 6.90625 -4.90625 C 7.039062 -4.476562 7.109375 -4.023438 7.109375 -3.546875 C 7.109375 -3.035156 7.035156 -2.554688 6.890625 -2.109375 C 6.753906 -1.671875 6.550781 -1.289062 6.28125 -0.96875 C 6.019531 -0.644531 5.695312 -0.382812 5.3125 -0.1875 C 4.925781 0 4.488281 0.09375 4 0.09375 C 3.476562 0.09375 3.019531 -0.0078125 2.625 -0.21875 C 2.238281 -0.425781 1.914062 -0.695312 1.65625 -1.03125 C 1.40625 -1.363281 1.210938 -1.742188 1.078125 -2.171875 C 0.953125 -2.597656 0.890625 -3.03125 0.890625 -3.46875 C 0.890625 -3.988281 0.960938 -4.472656 1.109375 -4.921875 C 1.253906 -5.367188 1.457031 -5.753906 1.71875 -6.078125 C 1.988281 -6.410156 2.316406 -6.671875 2.703125 -6.859375 C 3.085938 -7.046875 3.519531 -7.140625 4 -7.140625 Z M 4 -7.140625 "/></g></g></g><g fill="#ffffff" fill-opacity="1"><g transform="translate(191.059623, 323.770145)"><g><path d="M 1.828125 -3.515625 C 1.828125 -3.160156 1.863281 -2.8125 1.9375 -2.46875 C 2.019531 -2.132812 2.148438 -1.832031 2.328125 -1.5625 C 2.503906 -1.300781 2.726562 -1.085938 3 -0.921875 C 3.28125 -0.753906 3.613281 -0.671875 4 -0.671875 C 4.382812 -0.671875 4.710938 -0.75 4.984375 -0.90625 C 5.253906 -1.070312 5.476562 -1.285156 5.65625 -1.546875 C 5.832031 -1.816406 5.960938 -2.117188 6.046875 -2.453125 C 6.128906 -2.796875 6.171875 -3.148438 6.171875 -3.515625 C 6.171875 -3.835938 6.132812 -4.164062 6.0625 -4.5 C 5.988281 -4.84375 5.863281 -5.148438 5.6875 -5.421875 C 5.519531 -5.703125 5.296875 -5.929688 5.015625 -6.109375 C 4.742188 -6.285156 4.398438 -6.375 3.984375 -6.375 C 3.617188 -6.375 3.300781 -6.296875 3.03125 -6.140625 C 2.757812 -5.984375 2.535156 -5.773438 2.359375 -5.515625 C 2.179688 -5.253906 2.046875 -4.953125 1.953125 -4.609375 C 1.867188 -4.265625 1.828125 -3.898438 1.828125 -3.515625 Z M 4 -7.140625 C 4.5 -7.140625 4.941406 -7.039062 5.328125 -6.84375 C 5.710938 -6.644531 6.035156 -6.378906 6.296875 -6.046875 C 6.566406 -5.722656 6.769531 -5.34375 6.90625 -4.90625 C 7.039062 -4.476562 7.109375 -4.023438 7.109375 -3.546875 C 7.109375 -3.035156 7.035156 -2.554688 6.890625 -2.109375 C 6.753906 -1.671875 6.550781 -1.289062 6.28125 -0.96875 C 6.019531 -0.644531 5.695312 -0.382812 5.3125 -0.1875 C 4.925781 0 4.488281 0.09375 4 0.09375 C 3.476562 0.09375 3.019531 -0.0078125 2.625 -0.21875 C 2.238281 -0.425781 1.914062 -0.695312 1.65625 -1.03125 C 1.40625 -1.363281 1.210938 -1.742188 1.078125 -2.171875 C 0.953125 -2.597656 0.890625 -3.03125 0.890625 -3.46875 C 0.890625 -3.988281 0.960938 -4.472656 1.109375 -4.921875 C 1.253906 -5.367188 1.457031 -5.753906 1.71875 -6.078125 C 1.988281 -6.410156 2.316406 -6.671875 2.703125 -6.859375 C 3.085938 -7.046875 3.519531 -7.140625 4 -7.140625 Z M 4 -7.140625 "/></g></g></g><g fill="#ffffff" fill-opacity="1"><g transform="translate(199.057703, 323.770145)"><g><path d="M 3.515625 -7.140625 C 3.910156 -7.140625 4.238281 -7.101562 4.5 -7.03125 C 4.769531 -6.96875 5 -6.898438 5.1875 -6.828125 C 5.363281 -6.753906 5.476562 -6.71875 5.53125 -6.71875 C 5.582031 -6.71875 5.632812 -6.734375 5.6875 -6.765625 C 5.75 -6.796875 5.800781 -6.828125 5.84375 -6.859375 L 5.96875 -6.78125 L 5.28125 -5.375 L 5.140625 -5.4375 C 5.148438 -5.476562 5.15625 -5.507812 5.15625 -5.53125 C 5.15625 -5.5625 5.15625 -5.585938 5.15625 -5.609375 C 5.15625 -5.734375 5.09375 -5.84375 4.96875 -5.9375 C 4.84375 -6.03125 4.6875 -6.109375 4.5 -6.171875 C 4.320312 -6.234375 4.132812 -6.28125 3.9375 -6.3125 C 3.738281 -6.351562 3.5625 -6.375 3.40625 -6.375 C 2.988281 -6.375 2.644531 -6.269531 2.375 -6.0625 C 2.101562 -5.863281 1.96875 -5.625 1.96875 -5.34375 C 1.96875 -5.039062 2.082031 -4.804688 2.3125 -4.640625 C 2.539062 -4.484375 2.9375 -4.34375 3.5 -4.21875 C 3.832031 -4.15625 4.148438 -4.082031 4.453125 -4 C 4.765625 -3.914062 5.039062 -3.796875 5.28125 -3.640625 C 5.519531 -3.492188 5.710938 -3.300781 5.859375 -3.0625 C 6.003906 -2.820312 6.078125 -2.503906 6.078125 -2.109375 C 6.078125 -1.742188 6.003906 -1.425781 5.859375 -1.15625 C 5.710938 -0.882812 5.519531 -0.65625 5.28125 -0.46875 C 5.039062 -0.28125 4.765625 -0.140625 4.453125 -0.046875 C 4.148438 0.046875 3.828125 0.09375 3.484375 0.09375 C 3.171875 0.09375 2.878906 0.0625 2.609375 0 C 2.347656 -0.0625 2.125 -0.132812 1.9375 -0.21875 C 1.75 -0.300781 1.597656 -0.375 1.484375 -0.4375 C 1.378906 -0.507812 1.304688 -0.546875 1.265625 -0.546875 C 1.179688 -0.546875 1.101562 -0.488281 1.03125 -0.375 L 0.828125 -0.453125 L 1.515625 -1.890625 L 1.703125 -1.8125 C 1.671875 -1.757812 1.648438 -1.71875 1.640625 -1.6875 C 1.640625 -1.65625 1.640625 -1.628906 1.640625 -1.609375 C 1.640625 -1.515625 1.691406 -1.414062 1.796875 -1.3125 C 1.898438 -1.207031 2.035156 -1.101562 2.203125 -1 C 2.367188 -0.90625 2.5625 -0.828125 2.78125 -0.765625 C 3 -0.703125 3.226562 -0.671875 3.46875 -0.671875 C 3.664062 -0.671875 3.863281 -0.695312 4.0625 -0.75 C 4.269531 -0.800781 4.453125 -0.882812 4.609375 -1 C 4.765625 -1.113281 4.894531 -1.257812 5 -1.4375 C 5.101562 -1.625 5.15625 -1.847656 5.15625 -2.109375 C 5.15625 -2.304688 5.109375 -2.46875 5.015625 -2.59375 C 4.921875 -2.726562 4.796875 -2.835938 4.640625 -2.921875 C 4.484375 -3.015625 4.296875 -3.09375 4.078125 -3.15625 C 3.859375 -3.21875 3.617188 -3.273438 3.359375 -3.328125 C 3.066406 -3.390625 2.78125 -3.460938 2.5 -3.546875 C 2.226562 -3.640625 1.984375 -3.753906 1.765625 -3.890625 C 1.546875 -4.035156 1.367188 -4.222656 1.234375 -4.453125 C 1.109375 -4.679688 1.046875 -4.976562 1.046875 -5.34375 C 1.046875 -5.894531 1.273438 -6.332031 1.734375 -6.65625 C 2.191406 -6.976562 2.785156 -7.140625 3.515625 -7.140625 Z M 3.515625 -7.140625 "/></g></g></g><g fill="#ffffff" fill-opacity="1"><g transform="translate(206.159998, 323.770145)"><g><path d="M 6.125 -5.890625 L 5.9375 -5.890625 C 5.914062 -6.035156 5.867188 -6.132812 5.796875 -6.1875 C 5.722656 -6.238281 5.617188 -6.265625 5.484375 -6.265625 L 2.5625 -6.265625 L 2.5625 -3.96875 L 4.453125 -3.96875 C 4.585938 -3.96875 4.6875 -3.992188 4.75 -4.046875 C 4.820312 -4.109375 4.867188 -4.222656 4.890625 -4.390625 L 5.09375 -4.390625 L 5.09375 -2.8125 L 4.890625 -2.8125 C 4.867188 -2.96875 4.820312 -3.070312 4.75 -3.125 C 4.675781 -3.175781 4.582031 -3.203125 4.46875 -3.203125 L 2.5625 -3.203125 L 2.5625 -0.765625 L 5.625 -0.765625 C 5.757812 -0.765625 5.863281 -0.789062 5.9375 -0.84375 C 6.007812 -0.894531 6.054688 -1.007812 6.078125 -1.1875 L 6.265625 -1.1875 L 6.265625 0.28125 L 6.078125 0.28125 C 6.054688 0.164062 6 0.0859375 5.90625 0.046875 C 5.820312 0.015625 5.671875 0 5.453125 0 L 1.28125 0 L 1.28125 -0.1875 C 1.394531 -0.207031 1.46875 -0.265625 1.5 -0.359375 C 1.539062 -0.453125 1.5625 -0.585938 1.5625 -0.765625 L 1.5625 -6.265625 C 1.5625 -6.484375 1.539062 -6.628906 1.5 -6.703125 C 1.457031 -6.773438 1.382812 -6.820312 1.28125 -6.84375 L 1.28125 -7.046875 L 5.4375 -7.046875 C 5.5625 -7.046875 5.671875 -7.0625 5.765625 -7.09375 C 5.859375 -7.132812 5.914062 -7.210938 5.9375 -7.328125 L 6.125 -7.328125 Z M 6.125 -5.890625 "/></g></g></g><g fill="#ffffff" fill-opacity="1"><g transform="translate(213.262292, 323.770145)"><g/></g></g><g fill="#ffffff" fill-opacity="1"><g transform="translate(217.261327, 323.770145)"><g><path d="M 2.25 -8.421875 L 2.25 -8.21875 C 2.175781 -8.164062 2.109375 -8.117188 2.046875 -8.078125 C 1.992188 -8.035156 1.96875 -7.96875 1.96875 -7.875 C 1.96875 -7.78125 1.976562 -7.675781 2 -7.5625 C 2.03125 -7.445312 2.054688 -7.359375 2.078125 -7.296875 L 3.359375 -2.140625 L 3.390625 -2.140625 L 4.84375 -7.3125 C 4.863281 -7.394531 4.890625 -7.488281 4.921875 -7.59375 C 4.953125 -7.707031 4.96875 -7.8125 4.96875 -7.90625 C 4.96875 -7.957031 4.941406 -8.003906 4.890625 -8.046875 C 4.847656 -8.085938 4.757812 -8.144531 4.625 -8.21875 L 4.625 -8.421875 L 6.5625 -8.421875 L 6.5625 -8.21875 C 6.34375 -8.132812 6.234375 -8.046875 6.234375 -7.953125 C 6.234375 -7.910156 6.242188 -7.84375 6.265625 -7.75 C 6.285156 -7.664062 6.316406 -7.5625 6.359375 -7.4375 L 7.765625 -2.140625 L 7.796875 -2.140625 L 9.046875 -7.234375 C 9.117188 -7.535156 9.160156 -7.71875 9.171875 -7.78125 C 9.191406 -7.851562 9.203125 -7.90625 9.203125 -7.9375 C 9.203125 -8.050781 9.117188 -8.144531 8.953125 -8.21875 L 8.953125 -8.421875 L 10.46875 -8.421875 L 10.46875 -8.171875 C 10.332031 -8.128906 10.238281 -8.019531 10.1875 -7.84375 C 10.144531 -7.664062 10.097656 -7.488281 10.046875 -7.3125 L 8.59375 -1.5625 C 8.507812 -1.226562 8.445312 -0.988281 8.40625 -0.84375 C 8.375 -0.707031 8.359375 -0.601562 8.359375 -0.53125 C 8.359375 -0.414062 8.4375 -0.300781 8.59375 -0.1875 L 8.59375 0 L 6.8125 0 L 6.8125 -0.1875 C 6.988281 -0.238281 7.078125 -0.335938 7.078125 -0.484375 C 7.078125 -0.566406 7.054688 -0.6875 7.015625 -0.84375 C 6.972656 -1 6.9375 -1.132812 6.90625 -1.25 L 5.546875 -6.34375 L 5.515625 -6.34375 L 4.09375 -1.1875 C 4.0625 -1.082031 4.03125 -0.960938 4 -0.828125 C 3.96875 -0.691406 3.953125 -0.59375 3.953125 -0.53125 C 3.953125 -0.375 4.066406 -0.257812 4.296875 -0.1875 L 4.296875 0 L 2.34375 0 L 2.34375 -0.1875 C 2.425781 -0.25 2.488281 -0.300781 2.53125 -0.34375 C 2.570312 -0.394531 2.59375 -0.453125 2.59375 -0.515625 C 2.59375 -0.648438 2.546875 -0.910156 2.453125 -1.296875 L 0.84375 -7.703125 C 0.8125 -7.847656 0.773438 -7.953125 0.734375 -8.015625 C 0.703125 -8.078125 0.617188 -8.128906 0.484375 -8.171875 L 0.484375 -8.421875 Z M 2.25 -8.421875 "/></g></g></g><g fill="#ffffff" fill-opacity="1"><g transform="translate(227.930767, 323.770145)"><g><path d="M 2.640625 -7.046875 L 2.640625 -6.84375 C 2.523438 -6.820312 2.445312 -6.769531 2.40625 -6.6875 C 2.375 -6.601562 2.359375 -6.46875 2.359375 -6.28125 L 2.359375 -3.96875 L 5.640625 -3.96875 L 5.640625 -6.28125 C 5.640625 -6.46875 5.617188 -6.601562 5.578125 -6.6875 C 5.546875 -6.769531 5.472656 -6.820312 5.359375 -6.84375 L 5.359375 -7.046875 L 6.921875 -7.046875 L 6.921875 -6.84375 C 6.804688 -6.820312 6.726562 -6.769531 6.6875 -6.6875 C 6.65625 -6.601562 6.640625 -6.46875 6.640625 -6.28125 L 6.640625 -0.75 C 6.640625 -0.570312 6.65625 -0.4375 6.6875 -0.34375 C 6.726562 -0.257812 6.804688 -0.207031 6.921875 -0.1875 L 6.921875 0 L 5.359375 0 L 5.359375 -0.1875 C 5.472656 -0.207031 5.546875 -0.257812 5.578125 -0.34375 C 5.617188 -0.4375 5.640625 -0.570312 5.640625 -0.75 L 5.640625 -3.203125 L 2.359375 -3.203125 L 2.359375 -0.75 C 2.359375 -0.570312 2.375 -0.4375 2.40625 -0.34375 C 2.445312 -0.257812 2.523438 -0.207031 2.640625 -0.1875 L 2.640625 0 L 1.078125 0 L 1.078125 -0.1875 C 1.191406 -0.207031 1.265625 -0.257812 1.296875 -0.34375 C 1.335938 -0.4375 1.359375 -0.570312 1.359375 -0.75 L 1.359375 -6.28125 C 1.359375 -6.46875 1.335938 -6.601562 1.296875 -6.6875 C 1.265625 -6.769531 1.191406 -6.820312 1.078125 -6.84375 L 1.078125 -7.046875 Z M 2.640625 -7.046875 "/></g></g></g><g fill="#ffffff" fill-opacity="1"><g transform="translate(235.928848, 323.770145)"><g><path d="M 2.4375 -2.6875 L 4.65625 -2.6875 L 3.578125 -6.34375 L 3.546875 -6.34375 Z M 4.59375 -7.046875 L 4.59375 -6.84375 C 4.507812 -6.8125 4.46875 -6.722656 4.46875 -6.578125 C 4.46875 -6.515625 4.476562 -6.441406 4.5 -6.359375 C 4.53125 -6.273438 4.570312 -6.144531 4.625 -5.96875 L 6.3125 -0.578125 C 6.382812 -0.359375 6.5 -0.226562 6.65625 -0.1875 L 6.65625 0 L 5.1875 0 L 5.1875 -0.1875 C 5.238281 -0.195312 5.28125 -0.226562 5.3125 -0.28125 C 5.34375 -0.332031 5.359375 -0.382812 5.359375 -0.4375 C 5.359375 -0.46875 5.347656 -0.515625 5.328125 -0.578125 C 5.304688 -0.648438 5.28125 -0.742188 5.25 -0.859375 L 4.90625 -1.921875 L 2.15625 -1.921875 L 1.875 -0.96875 C 1.820312 -0.8125 1.785156 -0.6875 1.765625 -0.59375 C 1.742188 -0.507812 1.734375 -0.441406 1.734375 -0.390625 C 1.734375 -0.273438 1.800781 -0.207031 1.9375 -0.1875 L 1.9375 0 L 0.453125 0 L 0.453125 -0.1875 C 0.578125 -0.21875 0.664062 -0.273438 0.71875 -0.359375 C 0.78125 -0.441406 0.851562 -0.609375 0.9375 -0.859375 L 2.59375 -5.953125 C 2.675781 -6.191406 2.722656 -6.347656 2.734375 -6.421875 C 2.753906 -6.492188 2.765625 -6.546875 2.765625 -6.578125 C 2.765625 -6.691406 2.703125 -6.78125 2.578125 -6.84375 L 2.578125 -7.046875 Z M 4.59375 -7.046875 "/></g></g></g><g fill="#ffffff" fill-opacity="1"><g transform="translate(243.031142, 323.770145)"><g><path d="M 0.46875 -7.328125 L 0.65625 -7.328125 C 0.675781 -7.210938 0.722656 -7.132812 0.796875 -7.09375 C 0.867188 -7.0625 0.972656 -7.046875 1.109375 -7.046875 L 5.109375 -7.046875 C 5.222656 -7.046875 5.316406 -7.0625 5.390625 -7.09375 C 5.472656 -7.125 5.523438 -7.203125 5.546875 -7.328125 L 5.75 -7.328125 L 5.75 -5.890625 L 5.546875 -5.890625 C 5.523438 -6.035156 5.476562 -6.132812 5.40625 -6.1875 C 5.332031 -6.238281 5.234375 -6.265625 5.109375 -6.265625 L 3.59375 -6.265625 L 3.59375 -0.765625 C 3.59375 -0.578125 3.613281 -0.4375 3.65625 -0.34375 C 3.707031 -0.257812 3.796875 -0.207031 3.921875 -0.1875 L 3.921875 0 L 2.3125 0 L 2.3125 -0.1875 C 2.4375 -0.207031 2.515625 -0.257812 2.546875 -0.34375 C 2.585938 -0.4375 2.609375 -0.570312 2.609375 -0.75 L 2.609375 -6.265625 L 1.109375 -6.265625 C 0.984375 -6.265625 0.878906 -6.238281 0.796875 -6.1875 C 0.722656 -6.144531 0.675781 -6.046875 0.65625 -5.890625 L 0.46875 -5.890625 Z M 0.46875 -7.328125 "/></g></g></g><g fill="#ffffff" fill-opacity="1"><g transform="translate(249.25365, 323.770145)"><g/></g></g><g fill="#ffffff" fill-opacity="1"><g transform="translate(253.252684, 323.770145)"><g><path d="M 2.078125 -8.421875 L 2.078125 -8.25 C 1.910156 -8.21875 1.828125 -8.144531 1.828125 -8.03125 C 1.828125 -7.945312 1.851562 -7.859375 1.90625 -7.765625 C 1.957031 -7.671875 2.023438 -7.546875 2.109375 -7.390625 L 3.5625 -4.8125 L 5.046875 -7.453125 C 5.128906 -7.617188 5.1875 -7.734375 5.21875 -7.796875 C 5.257812 -7.859375 5.28125 -7.921875 5.28125 -7.984375 C 5.28125 -8.054688 5.25 -8.113281 5.1875 -8.15625 C 5.132812 -8.195312 5.0625 -8.21875 4.96875 -8.21875 L 4.96875 -8.421875 L 6.8125 -8.421875 L 6.8125 -8.21875 C 6.695312 -8.1875 6.609375 -8.140625 6.546875 -8.078125 C 6.492188 -8.023438 6.40625 -7.894531 6.28125 -7.6875 L 4.09375 -3.90625 L 4.09375 -0.78125 C 4.09375 -0.5625 4.117188 -0.410156 4.171875 -0.328125 C 4.234375 -0.253906 4.375 -0.207031 4.59375 -0.1875 L 4.59375 0 L 2.421875 0 L 2.421875 -0.1875 C 2.617188 -0.207031 2.75 -0.253906 2.8125 -0.328125 C 2.875 -0.398438 2.90625 -0.550781 2.90625 -0.78125 L 2.90625 -3.796875 L 0.984375 -7.15625 C 0.867188 -7.363281 0.75 -7.566406 0.625 -7.765625 C 0.507812 -7.972656 0.335938 -8.125 0.109375 -8.21875 L 0.109375 -8.421875 Z M 2.078125 -8.421875 "/></g></g></g><g fill="#ffffff" fill-opacity="1"><g transform="translate(260.354979, 323.770145)"><g><path d="M 1.828125 -3.515625 C 1.828125 -3.160156 1.863281 -2.8125 1.9375 -2.46875 C 2.019531 -2.132812 2.148438 -1.832031 2.328125 -1.5625 C 2.503906 -1.300781 2.726562 -1.085938 3 -0.921875 C 3.28125 -0.753906 3.613281 -0.671875 4 -0.671875 C 4.382812 -0.671875 4.710938 -0.75 4.984375 -0.90625 C 5.253906 -1.070312 5.476562 -1.285156 5.65625 -1.546875 C 5.832031 -1.816406 5.960938 -2.117188 6.046875 -2.453125 C 6.128906 -2.796875 6.171875 -3.148438 6.171875 -3.515625 C 6.171875 -3.835938 6.132812 -4.164062 6.0625 -4.5 C 5.988281 -4.84375 5.863281 -5.148438 5.6875 -5.421875 C 5.519531 -5.703125 5.296875 -5.929688 5.015625 -6.109375 C 4.742188 -6.285156 4.398438 -6.375 3.984375 -6.375 C 3.617188 -6.375 3.300781 -6.296875 3.03125 -6.140625 C 2.757812 -5.984375 2.535156 -5.773438 2.359375 -5.515625 C 2.179688 -5.253906 2.046875 -4.953125 1.953125 -4.609375 C 1.867188 -4.265625 1.828125 -3.898438 1.828125 -3.515625 Z M 4 -7.140625 C 4.5 -7.140625 4.941406 -7.039062 5.328125 -6.84375 C 5.710938 -6.644531 6.035156 -6.378906 6.296875 -6.046875 C 6.566406 -5.722656 6.769531 -5.34375 6.90625 -4.90625 C 7.039062 -4.476562 7.109375 -4.023438 7.109375 -3.546875 C 7.109375 -3.035156 7.035156 -2.554688 6.890625 -2.109375 C 6.753906 -1.671875 6.550781 -1.289062 6.28125 -0.96875 C 6.019531 -0.644531 5.695312 -0.382812 5.3125 -0.1875 C 4.925781 0 4.488281 0.09375 4 0.09375 C 3.476562 0.09375 3.019531 -0.0078125 2.625 -0.21875 C 2.238281 -0.425781 1.914062 -0.695312 1.65625 -1.03125 C 1.40625 -1.363281 1.210938 -1.742188 1.078125 -2.171875 C 0.953125 -2.597656 0.890625 -3.03125 0.890625 -3.46875 C 0.890625 -3.988281 0.960938 -4.472656 1.109375 -4.921875 C 1.253906 -5.367188 1.457031 -5.753906 1.71875 -6.078125 C 1.988281 -6.410156 2.316406 -6.671875 2.703125 -6.859375 C 3.085938 -7.046875 3.519531 -7.140625 4 -7.140625 Z M 4 -7.140625 "/></g></g></g><g fill="#ffffff" fill-opacity="1"><g transform="translate(268.353059, 323.770145)"><g><path d="M 2.703125 -7.046875 L 2.703125 -6.84375 C 2.578125 -6.820312 2.492188 -6.769531 2.453125 -6.6875 C 2.410156 -6.601562 2.390625 -6.460938 2.390625 -6.265625 L 2.390625 -2.109375 C 2.390625 -1.660156 2.519531 -1.304688 2.78125 -1.046875 C 3.050781 -0.796875 3.457031 -0.671875 4 -0.671875 C 4.539062 -0.671875 4.941406 -0.796875 5.203125 -1.046875 C 5.472656 -1.304688 5.609375 -1.660156 5.609375 -2.109375 L 5.609375 -6.265625 C 5.609375 -6.453125 5.585938 -6.585938 5.546875 -6.671875 C 5.503906 -6.765625 5.410156 -6.820312 5.265625 -6.84375 L 5.265625 -7.046875 L 6.921875 -7.046875 L 6.921875 -6.84375 C 6.796875 -6.820312 6.710938 -6.769531 6.671875 -6.6875 C 6.628906 -6.601562 6.609375 -6.460938 6.609375 -6.265625 L 6.609375 -2.359375 C 6.609375 -1.554688 6.40625 -0.945312 6 -0.53125 C 5.59375 -0.113281 4.925781 0.09375 4 0.09375 C 3.070312 0.09375 2.40625 -0.109375 2 -0.515625 C 1.59375 -0.929688 1.390625 -1.546875 1.390625 -2.359375 L 1.390625 -6.25 C 1.390625 -6.46875 1.363281 -6.613281 1.3125 -6.6875 C 1.269531 -6.769531 1.171875 -6.820312 1.015625 -6.84375 L 1.015625 -7.046875 Z M 2.703125 -7.046875 "/></g></g></g><g fill="#ffffff" fill-opacity="1"><g transform="translate(276.35114, 323.770145)"><g/></g></g><g fill="#ffffff" fill-opacity="1"><g transform="translate(280.350175, 323.770145)"><g><path d="M 2.875 -8.421875 L 2.875 -8.21875 C 2.726562 -8.195312 2.632812 -8.140625 2.59375 -8.046875 C 2.5625 -7.953125 2.546875 -7.8125 2.546875 -7.625 L 2.546875 -0.984375 L 6.09375 -0.984375 C 6.457031 -0.984375 6.65625 -1.097656 6.6875 -1.328125 L 6.875 -1.328125 L 6.875 0.28125 L 6.6875 0.28125 C 6.664062 0.164062 6.597656 0.0859375 6.484375 0.046875 C 6.367188 0.015625 6.25 0 6.125 0 L 1.03125 0 L 1.03125 -0.1875 C 1.164062 -0.207031 1.253906 -0.257812 1.296875 -0.34375 C 1.335938 -0.4375 1.359375 -0.582031 1.359375 -0.78125 L 1.359375 -7.625 C 1.359375 -7.8125 1.335938 -7.953125 1.296875 -8.046875 C 1.265625 -8.140625 1.175781 -8.195312 1.03125 -8.21875 L 1.03125 -8.421875 Z M 2.875 -8.421875 "/></g></g></g><g fill="#ffffff" fill-opacity="1"><g transform="translate(287.452469, 323.770145)"><g><path d="M 1.828125 -3.515625 C 1.828125 -3.160156 1.863281 -2.8125 1.9375 -2.46875 C 2.019531 -2.132812 2.148438 -1.832031 2.328125 -1.5625 C 2.503906 -1.300781 2.726562 -1.085938 3 -0.921875 C 3.28125 -0.753906 3.613281 -0.671875 4 -0.671875 C 4.382812 -0.671875 4.710938 -0.75 4.984375 -0.90625 C 5.253906 -1.070312 5.476562 -1.285156 5.65625 -1.546875 C 5.832031 -1.816406 5.960938 -2.117188 6.046875 -2.453125 C 6.128906 -2.796875 6.171875 -3.148438 6.171875 -3.515625 C 6.171875 -3.835938 6.132812 -4.164062 6.0625 -4.5 C 5.988281 -4.84375 5.863281 -5.148438 5.6875 -5.421875 C 5.519531 -5.703125 5.296875 -5.929688 5.015625 -6.109375 C 4.742188 -6.285156 4.398438 -6.375 3.984375 -6.375 C 3.617188 -6.375 3.300781 -6.296875 3.03125 -6.140625 C 2.757812 -5.984375 2.535156 -5.773438 2.359375 -5.515625 C 2.179688 -5.253906 2.046875 -4.953125 1.953125 -4.609375 C 1.867188 -4.265625 1.828125 -3.898438 1.828125 -3.515625 Z M 4 -7.140625 C 4.5 -7.140625 4.941406 -7.039062 5.328125 -6.84375 C 5.710938 -6.644531 6.035156 -6.378906 6.296875 -6.046875 C 6.566406 -5.722656 6.769531 -5.34375 6.90625 -4.90625 C 7.039062 -4.476562 7.109375 -4.023438 7.109375 -3.546875 C 7.109375 -3.035156 7.035156 -2.554688 6.890625 -2.109375 C 6.753906 -1.671875 6.550781 -1.289062 6.28125 -0.96875 C 6.019531 -0.644531 5.695312 -0.382812 5.3125 -0.1875 C 4.925781 0 4.488281 0.09375 4 0.09375 C 3.476562 0.09375 3.019531 -0.0078125 2.625 -0.21875 C 2.238281 -0.425781 1.914062 -0.695312 1.65625 -1.03125 C 1.40625 -1.363281 1.210938 -1.742188 1.078125 -2.171875 C 0.953125 -2.597656 0.890625 -3.03125 0.890625 -3.46875 C 0.890625 -3.988281 0.960938 -4.472656 1.109375 -4.921875 C 1.253906 -5.367188 1.457031 -5.753906 1.71875 -6.078125 C 1.988281 -6.410156 2.316406 -6.671875 2.703125 -6.859375 C 3.085938 -7.046875 3.519531 -7.140625 4 -7.140625 Z M 4 -7.140625 "/></g></g></g><g fill="#ffffff" fill-opacity="1"><g transform="translate(295.45055, 323.770145)"><g><path d="M 2.078125 -7.046875 L 2.078125 -6.84375 C 1.929688 -6.800781 1.859375 -6.71875 1.859375 -6.59375 C 1.859375 -6.539062 1.867188 -6.476562 1.890625 -6.40625 C 1.910156 -6.332031 1.941406 -6.238281 1.984375 -6.125 L 3.5625 -1.0625 L 3.59375 -1.0625 L 4.90625 -5.59375 C 4.988281 -5.84375 5.046875 -6.03125 5.078125 -6.15625 C 5.117188 -6.289062 5.140625 -6.414062 5.140625 -6.53125 C 5.140625 -6.707031 5.03125 -6.8125 4.8125 -6.84375 L 4.8125 -7.046875 L 6.546875 -7.046875 L 6.546875 -6.84375 C 6.390625 -6.832031 6.269531 -6.800781 6.1875 -6.75 C 6.113281 -6.707031 6.046875 -6.570312 5.984375 -6.34375 L 4.4375 -0.984375 C 4.394531 -0.835938 4.359375 -0.726562 4.328125 -0.65625 C 4.296875 -0.582031 4.28125 -0.507812 4.28125 -0.4375 C 4.28125 -0.320312 4.34375 -0.238281 4.46875 -0.1875 L 4.46875 0 L 2.671875 0 L 2.671875 -0.203125 C 2.742188 -0.222656 2.78125 -0.28125 2.78125 -0.375 C 2.78125 -0.425781 2.734375 -0.601562 2.640625 -0.90625 L 1.09375 -5.84375 C 1.050781 -5.96875 1.007812 -6.09375 0.96875 -6.21875 C 0.9375 -6.34375 0.914062 -6.414062 0.90625 -6.4375 C 0.851562 -6.582031 0.796875 -6.679688 0.734375 -6.734375 C 0.679688 -6.785156 0.597656 -6.820312 0.484375 -6.84375 L 0.484375 -7.046875 Z M 2.078125 -7.046875 "/></g></g></g><g fill="#ffffff" fill-opacity="1"><g transform="translate(302.552844, 323.770145)"><g><path d="M 6.125 -5.890625 L 5.9375 -5.890625 C 5.914062 -6.035156 5.867188 -6.132812 5.796875 -6.1875 C 5.722656 -6.238281 5.617188 -6.265625 5.484375 -6.265625 L 2.5625 -6.265625 L 2.5625 -3.96875 L 4.453125 -3.96875 C 4.585938 -3.96875 4.6875 -3.992188 4.75 -4.046875 C 4.820312 -4.109375 4.867188 -4.222656 4.890625 -4.390625 L 5.09375 -4.390625 L 5.09375 -2.8125 L 4.890625 -2.8125 C 4.867188 -2.96875 4.820312 -3.070312 4.75 -3.125 C 4.675781 -3.175781 4.582031 -3.203125 4.46875 -3.203125 L 2.5625 -3.203125 L 2.5625 -0.765625 L 5.625 -0.765625 C 5.757812 -0.765625 5.863281 -0.789062 5.9375 -0.84375 C 6.007812 -0.894531 6.054688 -1.007812 6.078125 -1.1875 L 6.265625 -1.1875 L 6.265625 0.28125 L 6.078125 0.28125 C 6.054688 0.164062 6 0.0859375 5.90625 0.046875 C 5.820312 0.015625 5.671875 0 5.453125 0 L 1.28125 0 L 1.28125 -0.1875 C 1.394531 -0.207031 1.46875 -0.265625 1.5 -0.359375 C 1.539062 -0.453125 1.5625 -0.585938 1.5625 -0.765625 L 1.5625 -6.265625 C 1.5625 -6.484375 1.539062 -6.628906 1.5 -6.703125 C 1.457031 -6.773438 1.382812 -6.820312 1.28125 -6.84375 L 1.28125 -7.046875 L 5.4375 -7.046875 C 5.5625 -7.046875 5.671875 -7.0625 5.765625 -7.09375 C 5.859375 -7.132812 5.914062 -7.210938 5.9375 -7.328125 L 6.125 -7.328125 Z M 6.125 -5.890625 "/></g></g></g></svg>